<svg id="Layer_1" data-name="Layer 1" xmlns="http://www.w3.org/2000/svg" viewBox="0 0 250 250"><defs><style>.cls-1{fill:#929292;}</style></defs><title>Artboard 3 copy</title><circle class="cls-1" cx="145.75" cy="55" r="6.72" transform="translate(3.8 119.17) rotate(-45)"/><path class="cls-1" d="M198.44,96.22c-16.16,0-31.27,13.1-31.27,29.26C167.17,125.48,198.44,131.54,198.44,96.22Z"/><path class="cls-1" d="M73.9,134.78H51.66a11.12,11.12,0,0,0,22.24,0Z"/><path class="cls-1" d="M69.52,158.61a33.56,33.56,0,0,1,26,25.63V133A33.56,33.56,0,0,1,69.52,158.61Z"/><circle class="cls-1" cx="46.14" cy="119.79" r="6.72"/><path class="cls-1" d="M125,12.61A112.39,112.39,0,1,0,237.39,125,112.39,112.39,0,0,0,125,12.61Zm91.6,152.53a100.32,100.32,0,0,1-54,52.53h0l-.16.06-.11,0h0a100.29,100.29,0,0,1-66,3h0l-.3-.09-.49-.14h0A100.29,100.29,0,0,1,36.21,171a33.51,33.51,0,0,1,19.86-12.4A33.53,33.53,0,1,1,96,121a33.55,33.55,0,0,1,26.51-27.43,33.53,33.53,0,1,1,13.14,0,33.55,33.55,0,0,1,26.8,29.57,33.53,33.53,0,1,1,40.14,35.47A33.46,33.46,0,0,1,216.6,165.14Z"/><circle class="cls-1" cx="79.54" cy="119.79" r="6.72" transform="translate(-18.16 14.29) rotate(-9.22)"/><path class="cls-1" d="M197,146.9a11.12,11.12,0,0,0,11.13-11.12H185.86A11.12,11.12,0,0,0,197,146.9Z"/><circle class="cls-1" cx="208.75" cy="120.79" r="6.72"/><circle class="cls-1" cx="112.35" cy="55" r="6.72" transform="translate(-9.63 27.28) rotate(-13.28)"/><path class="cls-1" d="M162.46,129a18.68,18.68,0,1,0,.12,11.63v46.64a33.56,33.56,0,0,1,26.51-28.62A33.54,33.54,0,0,1,162.46,129Z"/><path class="cls-1" d="M140.11,70H117.86a11.13,11.13,0,1,0,22.25,0Z"/></svg>