<svg xmlns="http://www.w3.org/2000/svg" id="Layer_1" data-name="Layer 1" viewBox="0 0 250 250"><defs><style>.cls-1{fill:#929292}</style></defs><title>Artboard 2 copy</title><path d="M89.55,155.83l0,4.37c0,10.93,5.91,19.8,18.91,21.64v-26H89.55Z" class="cls-1"/><path d="M155.47,160.2l0-4.37H136.23l.1,26C149.49,180.11,155.47,171.19,155.47,160.2Z" class="cls-1"/><path d="M125,13.55a112.4,112.4,0,0,0-25.17,222A61.53,61.53,0,0,0,108.49,204v-3a41.5,41.5,0,0,1-41.34-41.5v-3.73h-44a37.11,37.11,0,0,1,26.32-35.51A24.44,24.44,0,0,1,85.6,88.12a35.71,35.71,0,0,1-.18-3.6A37.1,37.1,0,0,1,159.35,80a32.22,32.22,0,0,1,42.21,40.65,37.09,37.09,0,0,1,25.32,35.18h-49v3.73a41.51,41.51,0,0,1-41.49,41.5v3.44a61.54,61.54,0,0,0,9.11,31.95A112.4,112.4,0,0,0,125,13.55Z" class="cls-1"/></svg>