<svg xmlns="http://www.w3.org/2000/svg" id="Layer_1" data-name="Layer 1" viewBox="0 0 250 250"><defs><style>.cls-1{fill:#929292}</style></defs><title>Artboard 4 copy</title><path d="M180.72,173.85H175.6l0,6.92a5.43,5.43,0,0,0,5.08-5.76Z" class="cls-1"/><path d="M155.57,47.26s12.68,41.92,32.57,67.7c23.89,31,27.79,59.94,27.63,76.32a112.39,112.39,0,0,0-171.94-144Z" class="cls-1"/><path d="M178.08,195.26a29.88,29.88,0,1,0-12.16-.26,16.33,16.33,0,0,0,2.31-8.35v-.79a11,11,0,0,1-11-11v-1H145.54a9.87,9.87,0,0,1,7-9.44,6.42,6.42,0,0,1-1.1-3.62,6.49,6.49,0,0,1,10.71-4.93c0-.32-.05-.64-.05-1a9.86,9.86,0,0,1,19.64-1.2,8.4,8.4,0,0,1,3.14-.6A8.57,8.57,0,0,1,193,164.5a9.87,9.87,0,0,1,6.73,9.35h-13v1a11,11,0,0,1-11,11v.92A16.28,16.28,0,0,0,178.08,195.26Z" class="cls-1"/><path d="M163.2,175a5.43,5.43,0,0,0,5,5.75v-6.91h-5Z" class="cls-1"/><path d="M134,70H59.86c-6.44,0-6.45,10,0,10H134C140.46,80,140.47,70,134,70Z" class="cls-1"/><path d="M92.3,205.1s-1.1-43.21-19-68.84C57.23,113.15,40.43,92.79,34.17,58.8A112.39,112.39,0,0,0,203.83,205.1Z" class="cls-1"/><path d="M153.76,97.89H79.6c-6.43,0-6.44,10,0,10h74.16C160.2,107.89,160.21,97.89,153.76,97.89Z" class="cls-1"/><path d="M92,128c-6.43,0-6.44,10,0,10h39.6c6.43,0,6.44-10,0-10Z" class="cls-1"/></svg>